<svg width="24" height="20" viewBox="0 0 24 20" fill="none" xmlns="http://www.w3.org/2000/svg">
<g clip-path="url(#clip0_108_44)">
<path d="M9.14144 15.7081C4.47385 16.9192 4.47385 13.6894 2.60681 13.2857M15.6761 18.1304V15.0056C15.7111 14.6206 15.6509 14.2335 15.4996 13.8701C15.3483 13.5068 15.1094 13.1754 14.7986 12.8981C17.7298 12.6155 20.8104 11.6547 20.8104 7.24596C20.8102 6.11861 20.3088 5.0345 19.4101 4.21801C19.8357 3.23171 19.8056 2.14152 19.3261 1.17391C19.3261 1.17391 18.2246 0.891301 15.6761 2.36894C13.5364 1.86737 11.2811 1.86737 9.14144 2.36894C6.59293 0.891301 5.49138 1.17391 5.49138 1.17391C5.01191 2.14152 4.98182 3.23171 5.40737 4.21801C4.50197 5.04056 4.00011 6.13447 4.00709 7.27018C4.00709 11.6466 7.0877 12.6074 10.0189 12.9224C9.71182 13.1969 9.47495 13.5242 9.32376 13.8832C9.17257 14.2421 9.11045 14.6245 9.14144 15.0056V18.1304" stroke="black" stroke-width="2" stroke-linecap="round" stroke-linejoin="round"/>
</g>
<defs>
<clipPath id="clip0_108_44">
<rect width="22.4044" height="19.3789" fill="white" transform="translate(0.739746 0.366455)"/>
</clipPath>
</defs>
</svg>
